<svg width="88" height="70" viewBox="0 0 88 70" fill="none" xmlns="http://www.w3.org/2000/svg">
<g clip-path="url(#clip0_4348_19413)">
<path d="M3.97309 23.9058C3.88601 24.2003 3.70981 24.4001 3.44449 24.5025C3.17763 24.606 2.87303 24.6253 2.52934 24.5642C2.18394 24.5036 1.83598 24.3762 1.48375 24.1848C1.13153 23.9934 0.82659 23.7503 0.572023 23.4541C0.317284 23.1562 0.143645 22.8276 0.0504234 22.465C-0.0445059 22.1009 -0.00557802 21.7179 0.168744 21.3128C0.634683 20.1911 1.21331 19.1694 1.90308 18.2456C2.59473 17.324 3.298 16.5127 4.01475 15.8128C4.73321 15.1137 5.43083 14.5167 6.10627 14.0262C6.7817 13.5357 7.3412 13.1692 7.79126 12.9263C8.24576 12.6587 8.76565 12.4288 9.34445 12.2379C9.92495 12.0483 10.514 11.935 11.1182 11.8972C11.7194 11.8612 12.3206 11.9181 12.9202 12.0686C13.5198 12.2191 14.0697 12.5046 14.57 12.9273C15.0687 13.3494 15.4985 13.9181 15.8548 14.6347C16.2159 15.3501 16.4641 16.2594 16.6091 17.361C16.7576 18.8517 16.6637 20.4396 16.3259 22.1231C15.9895 23.8064 15.4659 25.4347 14.758 27.0096C14.0501 28.5835 13.1635 30.0308 12.1013 31.3526C11.0375 32.6737 9.85478 33.7191 8.55326 34.4876L7.83053 41.9561C7.79143 42.2271 7.60157 42.3854 7.26437 42.4333C6.92887 42.4812 6.56828 42.4553 6.18071 42.3549C5.79484 42.2527 5.43698 42.0912 5.10695 41.8669C4.77862 41.6426 4.61608 41.3832 4.62308 41.09C4.61693 40.4313 4.63657 39.6131 4.68506 38.6343C4.73201 37.6557 4.79348 36.5788 4.8674 35.4005C4.94304 34.2221 5.02124 32.9792 5.10695 31.6703C5.19266 30.3623 5.2852 29.0553 5.38439 27.7494C5.48222 26.4453 5.57613 25.1724 5.66799 23.9324C5.75831 22.6932 5.84982 21.5419 5.93468 20.4829C5.91231 20.3286 6.00741 20.1587 6.21656 19.9727C6.42571 19.7859 6.68865 19.6025 7.00519 19.4202C7.32037 19.2397 7.66236 19.0784 8.03319 18.9403C8.40233 18.8009 8.7479 18.6978 9.06154 18.6301C9.37689 18.5623 9.64324 18.5466 9.8611 18.5846C10.0771 18.622 10.1884 18.723 10.1963 18.8844C9.95483 20.6912 9.72792 22.6203 9.50562 24.6745C9.28828 26.728 9.07434 28.7831 8.86912 30.8406C9.46601 30.185 10.0457 29.4315 10.6077 28.5786C11.1665 27.7258 11.6407 26.7863 12.0248 25.7606C12.409 24.7348 12.681 23.6155 12.8404 22.4011C12.9982 21.1868 12.9794 19.8882 12.787 18.5042C12.6854 17.9376 12.5539 17.4297 12.3926 16.9797C12.228 16.5299 12.0119 16.16 11.7414 15.872C11.471 15.5854 11.1606 15.393 10.8051 15.2947C10.453 15.197 10.0354 15.2263 9.56214 15.3794C9.05369 15.5515 8.53243 15.896 7.99529 16.4159C7.46123 16.9337 6.94151 17.5715 6.44262 18.3293C5.94219 19.0873 5.48052 19.9421 5.05795 20.8962C4.63213 21.8506 4.27119 22.8543 3.97309 23.9058Z" fill="black"/>
<path d="M27.6853 23.8297C27.5183 24.6663 27.3455 25.5492 27.1707 26.4834C26.9942 27.4169 26.7672 28.3123 26.4847 29.1668C26.2057 30.0226 25.8567 30.7911 25.4398 31.4722C25.0228 32.1533 24.4872 32.673 23.8313 33.028C23.3331 33.257 22.9306 33.2881 22.6245 33.1237C22.3168 32.9609 22.0771 32.6449 21.9076 32.1773C21.7136 32.6979 21.4737 33.1901 21.1876 33.6546C20.9018 34.1208 20.5985 34.5075 20.2817 34.8154C19.9614 35.1225 19.626 35.34 19.2808 35.4648C18.9357 35.5912 18.6004 35.5865 18.2801 35.4515C17.9564 35.3153 17.6598 35.0362 17.3873 34.6154C17.1164 34.1929 16.8907 33.5864 16.7085 32.7957C16.5449 32.1185 16.4421 31.3524 16.3916 30.4995C16.3412 29.6474 16.3392 28.7577 16.3877 27.8332C16.431 26.9075 16.525 25.9682 16.6677 25.0109C16.8087 24.0539 16.9999 23.135 17.2347 22.2522C17.4695 21.3704 17.7476 20.5413 18.0723 19.7649C18.3954 18.9887 18.7565 18.3177 19.1504 17.7506C19.4007 17.4088 19.709 17.1177 20.0756 16.8765C20.4423 16.6379 20.819 16.4901 21.2041 16.4353C21.5878 16.3822 21.9528 16.4387 22.2911 16.6062C22.6312 16.7744 22.9033 17.0816 23.1048 17.5305C23.4003 17.5783 23.7001 17.6531 24.0042 17.7569C24.31 17.8614 24.5787 17.9824 24.8127 18.1251C25.0466 18.2677 25.224 18.4138 25.3481 18.5646C25.4688 18.715 25.4908 18.8643 25.4056 19.0156C25.2129 19.3456 25.0694 19.7029 24.9784 20.0838C24.8842 20.4658 24.8108 20.8945 24.7567 21.3675C24.7075 21.8408 24.6628 22.3813 24.6307 22.9882C24.5986 23.5952 24.5461 24.2911 24.4765 25.0747C24.402 26.0457 24.3952 26.7633 24.4509 27.2296C24.5081 27.6949 24.6038 27.9378 24.7394 27.9573C24.875 27.9767 25.0346 27.7969 25.2195 27.4175C25.4077 27.0362 25.5994 26.4923 25.7949 25.7861L26.336 23.3506C26.4449 22.9823 26.5864 22.7346 26.7561 22.6107C26.9274 22.4875 27.0899 22.451 27.2419 22.5033C27.3938 22.5548 27.5207 22.6988 27.6175 22.9357C27.7143 23.1727 27.7382 23.4708 27.6853 23.8297ZM19.0978 30.1023C19.2246 30.9842 19.4087 31.4647 19.6484 31.5409C19.8881 31.6186 20.1265 31.4584 20.3665 31.0599C20.6033 30.6624 20.8263 30.1109 21.0355 29.4084C21.2446 28.706 21.3735 28.0208 21.4232 27.3512C21.4633 26.3164 21.5202 25.2617 21.5965 24.1843C21.6732 23.1086 21.7493 22.0838 21.822 21.113C21.8202 21.0731 21.8118 21.037 21.7939 21.0053C21.7759 20.9736 21.7713 20.9238 21.7756 20.8599C21.6366 20.0659 21.4584 19.65 21.2504 19.6086C21.0423 19.5664 20.8186 19.7755 20.5806 20.2348C20.3443 20.6949 20.1166 21.3405 19.896 22.1744C19.6767 23.0065 19.4862 23.896 19.3274 24.8413C19.1669 25.7868 19.0669 26.7318 19.0203 27.6769C18.9754 28.6218 19.0017 29.4299 19.0978 30.1023Z" fill="black"/>
<path d="M27.5481 24.4918C27.4795 24.8615 27.3583 25.1123 27.1848 25.2491C27.0112 25.3843 26.844 25.4237 26.688 25.3633C26.5285 25.3042 26.3999 25.1588 26.2934 24.926C26.1886 24.6931 26.1657 24.4044 26.2268 24.0613C26.5273 22.408 26.7481 20.9282 26.8876 19.6212C27.0271 18.315 27.1129 17.0837 27.1455 15.9276C26.996 15.5333 26.8927 15.0779 26.8374 14.5599C26.7819 14.0401 26.8025 13.5478 26.9024 13.0799C27.0265 12.4737 27.2309 11.9204 27.5068 11.4176C27.7812 10.9165 28.0515 10.5737 28.3144 10.3894C28.5773 10.206 28.7932 10.2234 28.9635 10.4402C29.1341 10.6587 29.1966 11.1837 29.1514 12.0143C29.1611 12.0302 29.1556 12.0423 29.1413 12.0503L29.1654 12.038C29.0756 12.7089 29.1162 13.2141 29.2893 13.5536C29.4657 13.8928 29.7015 14.1481 29.9996 14.3158C30.2996 14.4851 30.6296 14.6167 30.9929 14.7091C31.3547 14.8033 31.6866 14.9373 31.989 15.1154C32.2929 15.2918 32.5261 15.555 32.6847 15.9017C32.842 16.2518 32.8708 16.7732 32.7732 17.4681C32.7146 17.8928 32.6649 18.3803 32.6212 18.9309C32.5791 19.4821 32.5517 20.0302 32.5376 20.5763C32.5249 21.1206 32.5278 21.6318 32.5473 22.1064C32.5671 22.5827 32.6055 22.9703 32.6675 23.2672C32.7249 23.567 32.808 23.7458 32.912 23.8032C33.0143 23.86 33.1444 23.7438 33.2955 23.4535C33.4483 23.1639 33.6291 22.6638 33.8324 21.9525C34.0359 21.2431 34.2753 20.2638 34.5507 19.0171C34.6134 18.6738 34.7404 18.4134 34.9335 18.2354C35.1268 18.0583 35.3081 17.991 35.4761 18.0343C35.6441 18.0776 35.7752 18.2496 35.8679 18.5521C35.9588 18.8531 35.9439 19.3174 35.8278 19.9387C35.6453 21.0106 35.4705 21.944 35.3014 22.7381C35.1341 23.5338 34.9689 24.2222 34.809 24.8056C34.6492 25.3884 34.4778 25.8801 34.2915 26.2814C34.1068 26.6816 33.9035 27.0242 33.6849 27.3097C33.4759 27.6093 33.2086 27.8725 32.8859 28.0988C32.5632 28.3252 32.2342 28.4636 31.8987 28.5115C31.5615 28.5587 31.2349 28.503 30.919 28.3426C30.6048 28.1829 30.3381 27.8628 30.117 27.3813C29.8538 26.8225 29.6996 26.1554 29.6532 25.3841C29.605 24.613 29.6024 23.8276 29.6439 23.0284C29.6871 22.2305 29.7505 21.4511 29.834 20.6923C29.9174 19.9317 29.9591 19.2828 29.9557 18.7468C29.9429 18.5692 29.8874 18.4187 29.7892 18.2954C29.6893 18.1724 29.5731 18.071 29.4351 17.9898C29.2973 17.9095 29.1572 17.8412 29.0146 17.7838C28.8674 17.7294 28.7505 17.6948 28.6603 17.6803C28.5142 18.8567 28.3383 20.0025 28.1379 21.1153C27.9342 22.23 27.7382 23.3557 27.5481 24.4918Z" fill="black"/>
<path d="M34.1013 10.9437C34.0207 10.7196 33.9915 10.4348 34.0124 10.0918C34.0316 9.75078 34.0899 9.41466 34.179 9.0857C34.2715 8.7581 34.3992 8.55936 34.5684 8.48726C34.744 8.39113 34.9135 8.30489 35.0788 8.22563C35.2425 8.14739 35.412 8.06013 35.5908 7.96382C35.6982 7.09847 35.7942 6.25493 35.8756 5.4344C35.957 4.61472 36.0323 3.876 36.0982 3.21825C36.1658 2.56033 36.2208 2.00382 36.2615 1.54719C36.3036 1.08886 36.3287 0.775582 36.3417 0.603942C36.3866 0.269015 36.5901 0.0750468 36.9553 0.022038C37.3188 -0.0308004 37.7011 0.0114703 38.0969 0.147828C38.4911 0.28606 38.8399 0.495198 39.1401 0.777287C39.4387 1.06125 39.5478 1.37811 39.4725 1.72991C39.408 2.03331 39.3135 2.61828 39.1828 3.48415C39.0538 4.3524 38.9234 5.36946 38.793 6.53599L39.4409 6.18504C39.6005 6.0988 39.7175 6.1334 39.7918 6.28868C39.8662 6.44566 39.8998 6.65002 39.8925 6.90126C39.8853 7.1542 39.8372 7.41856 39.7484 7.69401C39.6596 7.9703 39.5492 8.17415 39.4158 8.30983L38.5509 8.77822C38.452 9.7005 38.3579 10.6216 38.2654 11.5391C38.1746 12.4582 38.0912 13.3114 38.0118 14.099C37.9325 14.8867 37.8679 15.5778 37.8215 16.1736C37.7718 16.7698 37.7472 17.2015 37.7481 17.4688C37.7218 17.9182 37.705 18.3617 37.6963 18.8005C37.6861 19.2409 37.6914 19.6316 37.7105 19.9725C37.7313 20.3132 37.7592 20.5832 37.7938 20.7806C37.8286 20.9796 37.8906 21.0551 37.9799 21.0061C38.0661 20.9599 38.181 20.769 38.3214 20.4337C38.4585 20.0988 38.6217 19.5717 38.8105 18.8485L39.3841 16.365C39.4766 15.963 39.6075 15.6914 39.7786 15.5455C39.948 15.4014 40.1117 15.36 40.2678 15.4193C40.4273 15.4785 40.5517 15.6327 40.6461 15.8816C40.7407 16.1313 40.7697 16.4504 40.7332 16.8431C40.556 17.622 40.3853 18.4906 40.2242 19.4478C40.0598 20.4052 39.8467 21.3238 39.5766 22.2038C39.3113 23.0817 38.9775 23.869 38.5783 24.5619C38.1775 25.2549 37.655 25.7342 37.0129 26.0003C36.5625 26.2031 36.1792 26.2411 35.8628 26.1125C35.5432 25.9851 35.2907 25.7296 35.1018 25.3448C34.913 24.9616 34.7718 24.4746 34.6781 23.883C34.586 23.2929 34.5271 22.6423 34.5029 21.9317C34.4785 21.2186 34.4812 20.4737 34.5124 19.6914C34.542 18.9099 34.5795 18.1226 34.6267 17.3312C34.6707 16.728 34.7535 15.8306 34.8698 14.6385C34.9895 13.4469 35.1252 12.1369 35.2804 10.708L34.5367 11.1103C34.3292 11.2234 34.1838 11.1694 34.1013 10.9437Z" fill="black"/>
<path d="M45.6424 3.47243C45.6718 3.18642 45.8449 3.01034 46.1618 2.94165C46.4772 2.87467 46.8197 2.88558 47.1893 2.97421C47.559 3.06284 47.8991 3.2142 48.213 3.42657C48.5255 3.64066 48.7165 3.88337 48.7831 4.15728C48.652 4.87111 48.5369 5.68874 48.4396 6.61C48.3408 7.53229 48.255 8.52616 48.1806 9.58992C48.1063 10.6554 48.0302 11.7728 47.952 12.9423C47.874 14.1125 47.7987 15.2968 47.7264 16.4949L47.8991 16.1835C48.1039 15.8032 48.2844 15.4299 48.4391 15.0667C48.5953 14.7033 48.743 14.319 48.8835 13.9118C49.024 13.5039 49.1535 13.066 49.2718 12.5981C49.3901 12.1311 49.5042 11.5978 49.6158 10.9993C49.7044 10.5175 49.8427 10.1783 50.0261 9.9845C50.2127 9.79054 50.3889 9.72116 50.5643 9.77128C50.7364 9.82343 50.8666 9.98553 50.9534 10.2584C51.0401 10.5321 51.0473 10.9068 50.973 11.3806C50.7942 12.346 50.5955 13.2932 50.3749 14.2199C50.1509 15.1477 49.874 15.9699 49.5422 16.6885C49.2455 17.3671 48.9168 18.026 48.5514 18.6691C48.1862 19.3129 47.8116 19.9451 47.4229 20.5694C47.335 21.8157 47.2329 23.0359 47.1166 24.228C46.9969 25.4196 46.8647 26.5471 46.7165 27.6094C46.5718 28.6721 46.4003 29.6443 46.2057 30.526C46.0126 31.4059 45.7964 32.1608 45.5552 32.7875C45.1565 33.7277 44.6494 34.4688 44.0307 35.011C43.4135 35.553 42.8101 35.86 42.2175 35.9336C41.6247 36.0056 41.1108 35.8406 40.6723 35.4364C40.234 35.0332 40.0054 34.3594 39.9904 33.4165C39.9752 32.4727 40.085 31.5226 40.3215 30.568C40.5579 29.6123 40.8851 28.6586 41.2994 27.7086C41.714 26.7602 42.1907 25.813 42.7232 24.8725C43.259 23.9308 43.8159 22.9821 44.3923 22.0276C44.4811 21.0485 44.5451 20.0199 44.5817 18.9452C44.4275 19.423 44.2585 19.8869 44.0797 20.3344C43.8979 20.7854 43.6966 21.2047 43.4756 21.594C43.2515 21.9844 42.9993 22.3223 42.7205 22.6081C42.4401 22.8958 42.121 23.1051 41.7582 23.24C41.2277 23.445 40.7934 23.4007 40.4587 23.1067C40.1224 22.8137 39.8646 22.3514 39.6889 21.7238C39.513 21.0945 39.399 20.3344 39.3464 19.4409C39.2989 18.5484 39.29 17.6009 39.3249 16.599C39.3595 15.5965 39.421 14.5755 39.5076 13.5358C39.5941 12.496 39.6827 11.516 39.7736 10.5969C39.8646 9.67958 39.947 8.85308 40.0244 8.11743C40.1019 7.38349 40.1418 6.82818 40.1449 6.45439C40.1898 6.11946 40.38 5.90759 40.7167 5.81862C41.0519 5.72982 41.4024 5.73664 41.7681 5.83737C42.1338 5.93879 42.4708 6.12815 42.7775 6.40803C43.084 6.68619 43.2238 7.02794 43.1972 7.4365C43.1627 7.86909 43.1181 8.41128 43.0566 9.06375C42.9988 9.71741 42.9349 10.3985 42.8652 11.1084C42.7958 11.82 42.7329 12.5109 42.6733 13.184C42.6139 13.8579 42.5709 14.4183 42.5478 14.8658C42.4751 15.8366 42.4715 16.5724 42.5371 17.0746C42.6028 17.5784 42.7083 17.8931 42.8507 18.0222C42.9931 18.1523 43.1608 18.1179 43.3553 17.919C43.5467 17.7219 43.7415 17.4153 43.9397 16.997C44.1362 16.5789 44.3211 16.071 44.4927 15.4705C44.6643 14.87 44.792 14.2285 44.8721 13.5426C44.9284 12.5388 44.9851 11.5569 45.042 10.5949C45.0988 9.63287 45.1569 8.72269 45.2177 7.86057C45.2771 7.00118 45.3433 6.19957 45.415 5.45779C45.4866 4.7143 45.5661 4.05263 45.6424 3.47243ZM43.5967 29.8149C43.6971 29.3888 43.7806 28.8882 43.8506 28.3121C43.9206 27.736 43.9916 27.0977 44.0669 26.3948C43.8151 26.9231 43.5591 27.4609 43.2957 28.0079C43.0321 28.5531 42.786 29.1268 42.5559 29.7277C42.3005 30.3641 42.1695 30.8949 42.163 31.3225C42.1582 31.7492 42.2214 32.0042 42.3594 32.0853C42.4971 32.1647 42.6797 32.0355 42.9098 31.6929C43.1384 31.353 43.3677 30.7256 43.5967 29.8149Z" fill="black"/>
<path d="M17.8319 49.3658C17.7448 49.6611 17.5688 49.8609 17.3034 49.9634C17.0366 50.066 16.732 50.0868 16.3881 50.0244C16.0427 49.9637 15.6948 49.8371 15.3425 49.645C14.9903 49.4537 14.6854 49.2105 14.4308 48.9143C14.1762 48.618 14.0024 48.2877 13.9075 47.9253C13.8145 47.5628 13.8532 47.1781 14.0275 46.7738C14.4933 45.6512 15.0721 44.6296 15.7619 43.7066C16.4533 42.7843 17.1566 41.9728 17.8734 41.273C18.5918 40.5738 19.2879 39.9786 19.9633 39.4881C20.6386 38.9958 21.1998 38.6309 21.6482 38.3873C22.1044 38.1189 22.6243 37.8889 23.2029 37.6978C23.7834 37.5083 24.3724 37.395 24.9768 37.3588C25.5778 37.3213 26.1773 37.3783 26.7786 37.5288C27.3782 37.6793 27.9282 37.9656 28.4284 38.3875C28.9272 38.8104 29.3569 39.3783 29.7132 40.0948C30.0745 40.8109 30.3226 41.7195 30.4675 42.8211C30.6163 44.3136 30.5206 45.9016 30.1843 47.5832C29.8464 49.2667 29.3245 50.8965 28.6149 52.4699C27.907 54.0438 27.0221 55.4918 25.9582 56.8129C24.8961 58.1356 23.7134 59.1801 22.4119 59.9478L21.6891 67.4169C21.65 67.6871 21.4602 67.8454 21.123 67.8942C20.7873 67.9412 20.4252 67.9155 20.0376 67.8151C19.6533 67.7128 19.2954 67.5512 18.9654 67.3269C18.6354 67.1026 18.4745 66.8432 18.4815 66.55C18.4737 65.8914 18.495 65.0731 18.542 64.0944C18.5906 63.1172 18.6519 62.0388 18.7243 60.8607C18.8017 59.682 18.8799 58.44 18.9654 57.1303C19.0494 55.8225 19.1419 54.5155 19.2411 53.2095C19.339 51.9054 19.4346 50.6332 19.5264 49.3932C19.6166 48.1534 19.7083 47.0035 19.7929 45.9429C19.7708 45.7895 19.8657 45.6187 20.0748 45.4327C20.2823 45.2468 20.5469 45.0625 20.8636 44.881C21.1786 44.6996 21.5208 44.5401 21.8915 44.4003C22.2608 44.2624 22.6046 44.1596 22.9198 44.091C23.2352 44.024 23.5017 44.0083 23.7192 44.0446C23.9336 44.0829 24.0465 44.183 24.0544 44.3444C23.8131 46.152 23.5845 48.0813 23.3637 50.1345C23.1464 52.188 22.9324 54.2431 22.7272 56.3006C23.3243 55.6465 23.9021 54.8925 24.4658 54.0386C25.0248 53.1867 25.4988 52.2463 25.8829 51.2206C26.2671 50.1948 26.5391 49.0755 26.6985 47.8611C26.8548 46.647 26.8375 45.3482 26.6434 43.9643C26.5418 43.3978 26.4121 42.8896 26.249 42.4398C26.0859 41.99 25.8701 41.6208 25.5997 41.3336C25.3291 41.0456 25.0187 40.853 24.6632 40.7546C24.3094 40.6571 23.8935 40.6863 23.4187 40.8395C22.912 41.0115 22.3907 41.356 21.8519 41.876C21.3178 42.3938 20.7998 43.0323 20.3009 43.7894C19.8005 44.5483 19.3388 45.4022 18.9162 46.3564C18.4904 47.3107 18.13 48.3143 17.8319 49.3658Z" fill="black"/>
<path d="M36.4945 52.1222C36.3175 52.902 36.1544 53.744 36.0074 54.6532C35.8587 55.5608 35.6647 56.4315 35.4238 57.2655C35.1829 58.0986 34.8734 58.8569 34.4995 59.5358C34.1225 60.2166 33.6212 60.7248 32.9973 61.0637C32.4148 61.3603 31.9354 61.4078 31.5669 61.203C31.1969 61.0006 30.9085 60.6248 30.7045 60.0741C30.4974 59.5246 30.3642 58.8314 30.3035 57.9945C30.2411 57.1594 30.2205 56.2655 30.2411 55.3127C30.2618 54.3599 30.3139 53.3808 30.3965 52.3721C30.481 51.3643 30.5688 50.4128 30.6598 49.5137C30.7508 48.6155 30.8348 47.8048 30.9065 47.083C30.9799 46.3601 31.0132 45.804 31.0098 45.414C31.0547 45.0791 31.2534 44.8873 31.6122 44.838C31.9676 44.7893 32.3497 44.8307 32.7552 44.963C33.1575 45.0971 33.5094 45.3035 33.808 45.5873C34.1064 45.8696 34.2172 46.1871 34.1404 46.5399C33.9395 47.352 33.795 48.3252 33.7067 49.4588C33.6204 50.5923 33.5539 51.6888 33.5092 52.7474C33.4829 53.1969 33.4662 53.6404 33.4558 54.0793C33.4471 54.5196 33.4523 54.9094 33.4716 55.2511C33.4908 55.592 33.5203 55.8618 33.555 56.0592C33.5898 56.2583 33.6502 56.334 33.7395 56.2849C33.8257 56.2387 33.9424 56.0476 34.081 55.7117C34.2198 55.3783 34.383 54.8504 34.5702 54.1274L35.1452 51.6428C35.2377 51.2417 35.3687 50.9683 35.5398 50.8241C35.7091 50.6792 35.8729 50.6387 36.0289 50.698C36.1884 50.7571 36.3129 50.9114 36.4073 51.1602C36.5002 51.4101 36.5311 51.7295 36.4945 52.1222ZM31.1549 42.7121C31.0316 42.1825 31.082 41.6674 31.3077 41.1656C31.5319 40.6648 31.8776 40.2876 32.342 40.0359C32.8049 39.7852 33.2376 39.7393 33.6357 39.9022C34.0339 40.066 34.2963 40.4117 34.418 40.9413C34.5413 41.47 34.4824 41.9843 34.248 42.4818C34.0103 42.9803 33.6608 43.3546 33.1964 43.6071C32.732 43.8595 32.306 43.9048 31.9181 43.7451C31.5302 43.5854 31.2767 43.2416 31.1549 42.7121Z" fill="black"/>
<path d="M44.139 47.6025C44.0814 48.2971 43.9879 48.9833 43.8603 49.6634C43.7328 50.3426 43.5812 50.9982 43.4091 51.6304C43.9281 50.8732 44.3725 50.0324 44.7408 49.1076C45.1091 48.1836 45.4217 47.1249 45.6831 45.9272C45.7444 45.625 45.8506 45.3915 46.0014 45.2274C46.1506 45.0634 46.3001 44.9773 46.4499 44.9671C46.6015 44.9584 46.7357 45.0349 46.8542 45.1972C46.9761 45.3608 47.0401 45.6049 47.0512 45.9298C46.8801 47.3675 46.5747 48.7079 46.1299 49.9515C45.6901 51.1937 45.1466 52.3283 44.5011 53.3519C43.8554 54.3737 43.1265 55.2711 42.3124 56.0432C41.5001 56.8152 40.6384 57.4487 39.7256 57.9432C38.9247 58.3782 38.24 58.4902 37.6703 58.2825C37.6337 59.3572 37.5981 60.4049 37.5636 61.4276C37.5291 62.4503 37.505 63.4051 37.49 64.2921C37.4767 65.1792 37.4741 65.9825 37.4825 66.7029C37.4907 67.4217 37.5059 68.0329 37.5316 68.5387C37.4604 68.8242 37.2699 69.0872 36.9667 69.3251C36.6617 69.5632 36.3283 69.7437 35.9711 69.8663C35.6103 69.9875 35.2926 70.027 35.0075 69.9851C34.7256 69.9404 34.5665 69.7742 34.5332 69.4814C34.3993 68.8918 34.3274 67.9322 34.3191 66.6027C34.309 65.2732 34.344 63.7375 34.4241 61.9988C34.5024 60.2594 34.6191 58.4063 34.7708 56.4404C34.9242 54.4744 35.0756 52.5613 35.2233 50.7002C35.3713 48.8417 35.5156 47.1282 35.6582 45.5609C35.7992 43.9947 35.9167 42.7423 36.0056 41.8033C36.0522 41.4682 36.2272 41.1816 36.5337 40.9434C36.8386 40.7052 37.1603 40.5416 37.4953 40.452C37.8304 40.364 38.1352 40.364 38.4111 40.4528C38.6868 40.5399 38.8233 40.7516 38.8198 41.0845L38.7985 41.2193C39.0348 40.7409 39.2829 40.3207 39.5434 39.9621C39.8023 39.6037 40.0688 39.3306 40.3413 39.1412C40.9213 38.7236 41.4219 38.5397 41.8432 38.5902C42.2648 38.6415 42.6256 38.8539 42.9225 39.2305C43.2211 39.6064 43.4664 40.1148 43.6599 40.7542C43.8537 41.3952 43.9911 42.1005 44.0794 42.8706C44.1675 43.6398 44.2131 44.4379 44.2175 45.2632C44.2204 46.0902 44.1963 46.8694 44.139 47.6025ZM38.0131 52.5707C38.0124 53.5235 38.0763 54.192 38.2033 54.5775C38.3322 54.9645 38.4963 55.1327 38.6981 55.086C38.8999 55.0393 39.1244 54.8027 39.3708 54.3802C39.617 53.9568 39.8574 53.4136 40.0853 52.7505C40.3167 52.0887 40.5206 51.3449 40.707 50.5209C40.8902 49.6972 41.0282 48.8557 41.1212 47.9983C41.28 46.2775 41.3372 44.9688 41.2848 44.0769C41.2356 43.183 41.1248 42.6064 40.9523 42.3487C40.7799 42.0893 40.5631 42.0988 40.2988 42.3777C40.0358 42.6546 39.7671 43.1051 39.4955 43.7288C39.2238 44.3525 38.9766 45.0968 38.7536 45.9627C38.5291 46.8287 38.3729 47.7101 38.2803 48.6094L38.0131 52.5707Z" fill="black"/>
<path d="M52.4556 33.4067C52.8118 33.6051 53.1003 33.8884 53.3209 34.2545C53.5417 34.6223 53.7131 35.0714 53.8384 35.6049C54.0918 36.645 54.1 37.7331 53.858 38.869C53.6161 40.004 53.2369 41.0678 52.7211 42.062C52.2034 43.0555 51.599 43.9232 50.9009 44.6615C50.2079 45.4008 49.5169 45.9054 48.8329 46.1719C48.9217 47.0965 49.1184 47.7147 49.4211 48.0257C49.7255 48.3375 50.0801 48.4249 50.4829 48.2891C50.8857 48.1524 51.3176 47.82 51.7737 47.2916C52.2331 46.7637 52.6726 46.1275 53.0955 45.3806C53.52 44.6337 53.8961 43.8142 54.2284 42.9183C54.5592 42.0243 54.8049 41.133 54.9634 40.2404C55.0385 39.8869 55.1556 39.664 55.3127 39.5687C55.4665 39.4737 55.6204 39.4899 55.7706 39.615C55.9243 39.7398 56.0409 39.9549 56.1239 40.2617C56.2068 40.5685 56.22 40.9341 56.163 41.3579C55.9497 42.5704 55.6829 43.7076 55.3609 44.7721C55.0388 45.8365 54.6465 46.8096 54.184 47.692C53.7199 48.5746 53.1768 49.3624 52.5481 50.0542C51.918 50.7479 51.1974 51.3143 50.3805 51.7575C49.2024 52.3351 48.2096 52.2427 47.4022 51.48C46.5932 50.7191 46.0433 49.196 45.7527 46.9117C45.6432 45.8336 45.6374 44.6984 45.7354 43.5079C45.8333 42.3158 46.0183 41.1608 46.2884 40.041C46.5604 38.9225 46.9016 37.884 47.3135 36.9242C47.7242 35.9678 48.1957 35.1683 48.7288 34.5284C49.2599 33.8872 49.8433 33.4526 50.4756 33.2233C51.1061 32.9951 51.7658 33.0554 52.4556 33.4067ZM51.5708 38.2934C51.7428 37.1247 51.7093 36.3672 51.4686 36.0205C51.228 35.6753 50.9166 35.7311 50.5312 36.1879C50.1473 36.6436 49.7761 37.4979 49.4109 38.7517C49.0455 40.004 48.8305 41.6212 48.7689 43.6006C49.1974 43.2853 49.5826 42.8636 49.9171 42.3412C50.2545 41.816 50.5444 41.2825 50.7861 40.7367C51.0279 40.191 51.2171 39.6909 51.3515 39.2341C51.4875 38.778 51.5596 38.4649 51.5708 38.2934Z" fill="black"/>
<path d="M61.7834 25.2434C61.841 26.9496 61.8009 28.4826 61.661 29.8414C61.5181 31.2022 61.2815 32.4153 60.9532 33.4845C60.623 34.5522 60.2033 35.4993 59.7001 36.3202C59.1922 37.1441 58.6173 37.8762 57.9721 38.5152C57.9794 38.8004 57.9873 39.0712 57.9921 39.3274C57.9969 39.5827 58.0109 39.8488 58.0392 40.1237C58.0797 40.8471 58.1657 41.4092 58.3044 41.8111C58.4396 42.2134 58.6013 42.4829 58.7894 42.6197C58.9774 42.7549 59.1874 42.781 59.4206 42.6947C59.654 42.6102 59.889 42.4501 60.1276 42.2197C60.3628 41.9879 60.5914 41.7024 60.8137 41.3656C61.0344 41.0298 61.2303 40.6795 61.4065 40.3143C61.6426 39.835 61.8604 39.2822 62.0582 38.6577C62.2559 38.0323 62.4194 37.4167 62.5453 36.8104C62.644 36.3836 62.7908 36.0829 62.9837 35.9041C63.1787 35.7277 63.3639 35.6667 63.5403 35.7277C63.7181 35.786 63.854 35.956 63.9431 36.2379C64.0339 36.5205 64.0256 36.9074 63.9226 37.3979C63.7162 38.3158 63.4606 39.2831 63.1541 40.2969C62.8446 41.3143 62.4807 42.288 62.0547 43.2224C61.6303 44.1549 61.1391 44.9964 60.5821 45.7421C60.0255 46.4911 59.4112 47.0462 58.7396 47.4112C58.3231 47.6377 57.9188 47.7202 57.527 47.6644C57.1319 47.6099 56.7488 47.3529 56.3738 46.8928C56.0269 46.4821 55.7425 45.8552 55.522 45.0126C55.3016 44.1701 55.1329 43.1952 55.0175 42.0883C54.9038 40.9821 54.8413 39.7743 54.8331 38.4648C54.8249 37.1552 54.8633 35.8247 54.9455 34.4768C55.0307 33.1271 55.1611 31.795 55.3365 30.4788C55.5118 29.1626 55.7237 27.9353 55.9736 26.7953C56.2253 25.6562 56.5089 24.6479 56.8295 23.7706C57.1502 22.8943 57.5039 22.2154 57.8843 21.7399C58.2045 21.3383 58.5789 21.0729 59.0074 20.9432C59.4362 20.8159 59.8452 20.8776 60.2431 21.1292C60.6375 21.3794 60.9784 21.8348 61.2659 22.4958C61.5536 23.1583 61.7276 24.0726 61.7834 25.2434ZM58.8348 27.308C58.6853 28.631 58.5316 29.9661 58.3725 31.3142C58.2151 32.6621 58.1037 34.0568 58.0385 35.4992C58.6178 34.5026 59.0621 33.3459 59.381 32.0244C59.6999 30.703 59.896 29.3196 59.9786 27.8666C60.0187 27.1827 60.0175 26.541 59.9735 25.9449C59.9279 25.3491 59.8468 24.9536 59.7302 24.7569C59.6139 24.5635 59.4782 24.6359 59.3218 24.9794C59.1671 25.3226 59.0032 26.0995 58.8348 27.308Z" fill="black"/>
<path d="M68.6826 34.6614C68.5053 35.4395 68.3425 36.2832 68.1936 37.1908C68.0449 38.1001 67.8526 38.9697 67.6117 39.8037C67.3708 40.6377 67.0613 41.3952 66.6858 42.0751C66.3088 42.7552 65.8091 43.264 65.1852 43.6028C64.6009 43.8987 64.1231 43.9461 63.7548 43.7421C63.3848 43.5398 63.0963 43.1631 62.8924 42.6132C62.6851 42.0628 62.5502 41.369 62.4896 40.5338C62.4271 39.697 62.4082 38.8046 62.429 37.8518C62.4481 36.8992 62.5 35.9193 62.5844 34.9112C62.6687 33.9025 62.7549 32.9504 62.8459 32.053C62.9385 31.1539 63.0225 30.344 63.0944 29.6223C63.1678 28.8987 63.2011 28.3424 63.1958 27.9526C63.2407 27.6177 63.441 27.4257 63.7981 27.3767C64.1553 27.3286 64.5357 27.3693 64.9412 27.5016C65.3452 27.6356 65.6971 27.8428 65.994 28.1268C66.2941 28.4089 66.4049 28.7264 66.3264 29.0787C66.1255 29.8916 65.981 30.864 65.8944 31.9975C65.8079 33.1309 65.7416 34.2283 65.6954 35.2871C65.6691 35.7357 65.6523 36.1792 65.6436 36.6188C65.6349 37.0584 65.64 37.448 65.6595 37.7906C65.6786 38.1306 65.7065 38.4006 65.7411 38.5989C65.7758 38.7971 65.8379 38.8726 65.9272 38.8244C66.0134 38.7773 66.1266 38.5866 66.267 38.2505C66.4075 37.9169 66.569 37.3892 66.7561 36.6662L67.3329 34.1814C67.4237 33.7805 67.5549 33.5078 67.7275 33.3627C67.8968 33.2179 68.0604 33.1764 68.2149 33.2368C68.3727 33.2961 68.4989 33.451 68.5934 33.6999C68.688 33.9487 68.7174 34.2688 68.6826 34.6614ZM63.3413 25.2514C63.2195 24.7209 63.2701 24.2065 63.4941 23.704C63.7199 23.2031 64.064 22.8261 64.5286 22.5752C64.9912 22.3236 65.4258 22.2786 65.8222 22.4416C66.2221 22.6043 66.4843 22.95 66.6061 23.4804C66.7293 24.0091 66.6704 24.5225 66.4343 25.0202C66.1984 25.5195 65.8471 25.8939 65.3829 26.1464C64.9185 26.3973 64.4941 26.444 64.1062 26.2834C63.7184 26.1246 63.4628 25.7801 63.3413 25.2514Z" fill="black"/>
<path d="M67.8011 24.244C67.8444 23.9092 68.027 23.7064 68.3421 23.6386C68.6575 23.5716 68.9945 23.5963 69.3469 23.7149C69.7026 23.8332 70.0258 24.0197 70.3201 24.2738C70.6128 24.5281 70.7598 24.8216 70.7533 25.1555L70.5554 27.5911C70.7208 26.9418 70.9127 26.2694 71.1323 25.5709C71.3551 24.8706 71.6027 24.2039 71.8783 23.5673C72.1538 22.9316 72.4673 22.3635 72.8171 21.8639C73.1668 21.3635 73.565 20.9724 74.0114 20.688C74.3343 20.5552 74.6667 20.5293 75.0106 20.6111C75.3562 20.6927 75.6496 20.901 75.8923 21.2334C76.1368 21.5673 76.3121 22.042 76.4197 22.6565C76.5255 23.2702 76.5141 24.0485 76.3831 24.9878C76.3087 25.4225 76.2129 26.047 76.0995 26.8644C75.9845 27.6821 75.8737 28.5285 75.7687 29.4022C75.6638 30.2766 75.5781 31.105 75.5067 31.8877C75.4354 32.6712 75.4164 33.2564 75.4497 33.6411C75.4813 34.0268 75.5819 34.1389 75.7432 33.9789C75.9046 33.8188 76.1721 33.224 76.5441 32.1952C76.7837 31.5684 76.9717 30.9272 77.1132 30.2718C77.2546 29.6156 77.3889 29.047 77.5189 28.5606C77.5979 28.2509 77.714 28.0165 77.8689 27.8604C78.0205 27.7046 78.1767 27.6362 78.3324 27.6555C78.4881 27.6741 78.6225 27.7722 78.7388 27.9464C78.8552 28.1223 78.9099 28.3756 78.9066 28.7092C78.7902 29.6407 78.6401 30.6076 78.4497 31.61C78.2578 32.6143 78.0109 33.5666 77.7041 34.4669C77.3941 35.369 77.008 36.1693 76.5388 36.8685C76.0683 37.5695 75.4927 38.0727 74.8108 38.38C74.3063 38.6328 73.8982 38.6931 73.5885 38.5622C73.2786 38.4306 73.0348 38.1794 72.8542 37.8112C72.6753 37.4437 72.5551 36.9868 72.4955 36.4389C72.4359 35.8928 72.414 35.3189 72.4303 34.7208C72.4478 34.1209 72.4881 33.5306 72.554 32.9465C72.6184 32.3632 72.6894 31.8546 72.7639 31.42C72.8658 30.8074 72.9638 30.1525 73.0632 29.4576C73.1627 28.7634 73.2375 28.1114 73.2911 27.5024C73.3432 26.8951 73.3746 26.355 73.3888 25.8834C73.4012 25.4109 73.3657 25.0932 73.2872 24.929C73.2088 24.7656 73.0878 24.779 72.9227 24.9711C72.7577 25.1641 72.5236 25.6122 72.2238 26.3127C72.0654 26.7081 71.8738 27.2536 71.65 27.943C71.4246 28.6344 71.2035 29.3346 70.9863 30.0412C70.7709 30.7484 70.5714 31.3932 70.3934 31.9766C70.2136 32.5611 70.091 32.9634 70.0241 33.1849C69.9384 34.4745 69.8846 35.7287 69.8663 36.9496C69.848 38.1697 69.9197 39.3682 70.083 40.5418C70.0263 40.8209 69.8516 41.0741 69.5627 41.304C69.2737 41.5324 68.9646 41.7064 68.6338 41.8233C68.3029 41.941 68.0014 41.9766 67.7258 41.928C67.4519 41.8808 67.296 41.7112 67.2629 41.4199C67.0777 40.4656 66.9775 39.304 66.967 37.9336C66.9549 36.5625 66.9932 35.0992 67.0797 33.542C67.1647 31.9859 67.2737 30.4 67.4118 28.783C67.5484 27.1687 67.678 25.655 67.8011 24.244Z" fill="black"/>
<path d="M84.2574 16.1543C84.6137 16.3536 84.9021 16.6367 85.1228 17.003C85.3436 17.3708 85.515 17.8199 85.6403 18.3534C85.8937 19.3935 85.9017 20.4808 85.66 21.6175C85.418 22.7525 85.0388 23.8162 84.523 24.8105C84.0054 25.804 83.4009 26.6709 82.7028 27.4099C82.0098 28.1493 81.3188 28.6539 80.6349 28.9204C80.7236 29.8449 80.9203 30.4632 81.223 30.7742C81.5275 31.0851 81.8819 31.1727 82.2848 31.0376C82.6876 30.9009 83.1196 30.5678 83.5756 30.0401C84.0351 29.5122 84.4745 28.876 84.8974 28.1291C85.3219 27.3822 85.698 26.5627 86.0303 25.6668C86.3612 24.7728 86.6069 23.8815 86.7653 22.9882C86.8438 22.6352 86.9576 22.4126 87.1146 22.3173C87.2685 22.2224 87.4223 22.2386 87.5743 22.3635C87.7262 22.4885 87.8428 22.7036 87.9275 23.0102C88.0088 23.3162 88.0219 23.6828 87.9649 24.1065C87.7516 25.3191 87.4865 26.4561 87.1626 27.5199C86.8406 28.5852 86.4482 29.5582 85.9859 30.4407C85.5235 31.3231 84.9787 32.1102 84.3499 32.802C83.7197 33.4966 82.9994 34.063 82.1822 34.5061C81.004 35.0831 80.0112 34.9906 79.2039 34.2287C78.395 33.4678 77.8467 31.9445 77.5544 29.6603C77.445 28.5823 77.4392 27.4471 77.5372 26.2565C77.635 25.0644 77.8201 23.9095 78.0902 22.7896C78.362 21.6703 78.7033 20.6318 79.1153 19.6729C79.5259 18.7165 79.9975 17.9169 80.5304 17.2762C81.0617 16.6357 81.6451 16.2012 82.2772 15.9711C82.9077 15.7429 83.5676 15.8039 84.2574 16.1543ZM83.3728 21.0417C83.5447 19.8721 83.5112 19.1155 83.2705 18.7688C83.0299 18.4228 82.7185 18.4785 82.3332 18.9362C81.9492 19.392 81.578 20.2462 81.2128 21.4992C80.8476 22.7522 80.6325 24.3695 80.5708 26.3489C80.9994 26.0336 81.3846 25.6119 81.7189 25.0886C82.0562 24.5635 82.3461 24.03 82.5881 23.4851C82.8298 22.9393 83.019 22.4392 83.1534 21.9824C83.2895 21.5263 83.3615 21.2132 83.3728 21.0417Z" fill="black"/>
</g>
<defs>
<clipPath id="clip0_4348_19413">
<rect width="88" height="70" fill="white"/>
</clipPath>
</defs>
</svg>
